<svg xmlns="http://www.w3.org/2000/svg"  viewBox="0 0 50 50" width="50px" height="50px"><path d="M 2.8457031 6 C 1.2767031 6 0 7.2975781 0 8.8925781 L 0 43 C 0 43.552 0.448 44 1 44 L 27.267578 44 C 26.817578 43.375 26.425563 42.707 26.101562 42 L 2 42 L 2 20 L 44 20 L 44 27.267578 C 44.734 27.796578 45.404 28.403078 46 29.080078 L 46 8.8925781 C 46 7.2975781 44.723297 6 43.154297 6 L 2.8457031 6 z M 2.8457031 8 L 43.154297 8 C 43.621297 8 44 8.3995781 44 8.8925781 L 44 18 L 2 18 L 2 8.8925781 C 2 8.3995781 2.3787031 8 2.8457031 8 z M 17 10 L 17 11 L 17 16 L 41 16 L 41 10 L 17 10 z M 6 11 A 2 2 0 0 0 4 13 A 2 2 0 0 0 6 15 A 2 2 0 0 0 8 13 A 2 2 0 0 0 6 11 z M 12 11 A 2 2 0 0 0 10 13 A 2 2 0 0 0 12 15 A 2 2 0 0 0 14 13 A 2 2 0 0 0 12 11 z M 19 12 L 39 12 L 39 14 L 19 14 L 19 12 z M 37 27 C 31.488997 27 27 31.488997 27 37 C 27 42.511003 31.488997 47 37 47 C 39.396508 47 41.597385 46.148986 43.322266 44.736328 L 48.292969 49.707031 L 49.707031 48.292969 L 44.736328 43.322266 C 46.148986 41.597385 47 39.396508 47 37 C 47 31.488997 42.511003 27 37 27 z M 37 29 C 41.430123 29 45 32.569877 45 37 C 45 41.430123 41.430123 45 37 45 C 32.569877 45 29 41.430123 29 37 C 29 32.569877 32.569877 29 37 29 z"/></svg>