<svg xmlns="http://www.w3.org/2000/svg"  viewBox="0 0 50 50" width="50px" height="50px"><path d="M 24.832031 2.0488281 C 24.170031 2.0528281 23.509563 2.0854844 22.851562 2.1464844 C 21.098562 2.3084844 19.364406 2.676 17.691406 3.25 C 15.144406 4.047 12.778313 5.342 10.695312 7 L 3 7 C 1.346 7 0 8.346 0 10 L 0 16 C 0 17.592 1.2484062 18.885422 2.8164062 18.982422 C 1.0184062 25.462422 2.2736875 32.697875 6.1796875 38.171875 C 10.169688 44.044875 17.038016 47.789 24.166016 48 L 24.169922 48 C 31.707922 48.31 39.202375 44.771547 43.609375 38.685547 L 43.615234 38.679688 C 45.877234 35.495688 47.315734 31.726953 47.802734 27.876953 C 49.065734 27.522953 50 26.374 50 25 L 50 19 C 50 17.346 48.654 16 47 16 L 46.119141 16 C 44.487141 12.161 41.849047 8.7542344 38.373047 6.3652344 C 38.250047 6.2102344 38.084484 6.0951562 37.896484 6.0351562 L 37.894531 6.0351562 C 36.287531 4.9251562 34.54075 4.0542969 32.71875 3.4042969 C 32.59675 3.2782969 32.443391 3.1876719 32.275391 3.1386719 C 30.887391 2.7416719 29.505187 2.3111719 27.867188 2.2011719 C 27.833188 2.1991719 27.799625 2.1982188 27.765625 2.1992188 C 27.717625 2.2012187 27.669094 2.2077969 27.621094 2.2167969 C 26.695094 2.1097969 25.764031 2.0438281 24.832031 2.0488281 z M 24.845703 4.0566406 C 25.066703 4.0556406 25.286812 4.073125 25.507812 4.078125 L 25.292969 4.2929688 C 24.901969 4.6829687 24.902969 5.3170313 25.292969 5.7070312 C 25.402969 5.8170313 25.536594 5.9002188 25.683594 5.9492188 L 28.457031 6.875 L 30.292969 8.7070312 C 30.683969 9.0970313 31.315078 9.0970313 31.705078 8.7070312 C 31.832078 8.5800312 31.922797 8.4220469 31.966797 8.2480469 L 32.669922 5.5097656 C 34.133922 6.0817656 35.533125 6.8187031 36.828125 7.7207031 L 36.855469 7.7382812 C 36.897469 7.7652813 36.935563 7.7972187 36.976562 7.8242188 L 39 10.351562 L 39 11 C 39 11.412 39.251766 11.780641 39.634766 11.931641 L 41.851562 12.800781 L 42.097656 16 L 36 16 C 35.196 16 34.442 16.313813 33.875 16.882812 C 33.308 17.451812 32.997 18.207719 33 19.011719 L 33.027344 25.542969 L 32.740234 25.226562 C 32.544234 25.011563 32.265609 24.892391 31.974609 24.900391 L 27.974609 25.001953 C 27.827609 25.005953 27.683734 25.040469 27.552734 25.105469 L 25.923828 25.919922 L 23.34375 25.060547 L 20 23.722656 L 20 19.720703 L 22.162109 19 L 23.382812 19 L 23.605469 19.447266 C 23.852469 19.941266 24.453266 20.141531 24.947266 19.894531 C 25.441266 19.647531 25.641531 19.046734 25.394531 18.552734 L 25.216797 18.197266 L 28.636719 14.777344 L 31.554688 12.832031 C 32.014688 12.525031 32.139031 11.905312 31.832031 11.445312 C 31.796031 11.390313 31.754031 11.338969 31.707031 11.292969 L 29.707031 9.2929688 L 28.707031 8.2929688 L 27.849609 7.4355469 C 27.621609 7.0885469 27.203828 6.9188125 26.798828 7.0078125 C 26.795828 7.0088125 26.794016 7.0087656 26.791016 7.0097656 C 26.547016 7.0597656 26.329594 7.1993437 26.183594 7.4023438 L 24.78125 8.8046875 L 24 8.453125 L 24 6.0449219 C 24.001 6.0149219 24.000047 5.9850781 23.998047 5.9550781 L 23.998047 5.9453125 L 23.998047 5.9414062 C 23.974047 5.4014062 23.525375 4.9783281 22.984375 4.9863281 C 22.928375 4.9873281 22.873359 4.9929063 22.818359 5.0039062 L 19.246094 5.09375 L 18.974609 4.9453125 C 20.295609 4.5413125 21.658156 4.2675781 23.035156 4.1425781 C 23.636156 4.0875781 24.240703 4.0596406 24.845703 4.0566406 z M 3 9 L 8.4824219 9 L 11.419922 9 L 14 9 L 14.044922 9 C 14.312922 9 14.565906 9.1049219 14.753906 9.2949219 C 14.942906 9.4849219 15.045922 9.7369063 15.044922 10.003906 L 15.007812 18.992188 L 12.650391 17.201172 C 12.476391 17.070172 12.262922 17 12.044922 17 L 5.6054688 17 L 3.4648438 17 L 3 17 C 2.448 17 2 16.551 2 16 L 2 10 C 2 9.449 2.448 9 3 9 z M 36 18 L 47 18 C 47.552 18 48 18.449 48 19 L 48 25 C 48 25.551 47.552 26 47 26 L 38 26 C 37.782 26 37.569484 26.071125 37.396484 26.203125 L 35.037109 27.992188 L 35 19.003906 C 34.999 18.735906 35.103969 18.484922 35.292969 18.294922 C 35.480969 18.104922 35.732 18 36 18 z M 4.8984375 19 L 11.708984 19 L 14.255859 20.931641 L 15.050781 23.316406 C 15.134781 23.568406 15.315734 23.776531 15.552734 23.894531 L 17.552734 24.894531 C 17.577734 24.906531 17.602906 24.917734 17.628906 24.927734 L 20.310547 26 L 16 26 C 14.346 26 13 27.346 13 29 L 13 35 C 13 36.654 14.346 38 16 38 L 24.664062 38 L 26.917969 39.708984 L 25.064453 44.648438 C 24.884453 45.127437 25.095734 45.665531 25.552734 45.894531 L 25.761719 46 C 25.255719 46.017 24.749188 46.021 24.242188 46 L 24.228516 46 C 17.761516 45.81 11.437125 42.359063 7.828125 37.039062 C 7.824125 37.032063 7.8194531 37.026531 7.8144531 37.019531 C 4.1684531 31.915531 3.0564375 25.004 4.8984375 19 z M 26.023438 20.996094 C 25.471438 20.974094 25.007328 21.403078 24.986328 21.955078 C 24.968328 22.406078 25.254547 22.813219 25.685547 22.949219 L 28.685547 23.949219 C 29.209547 24.124219 29.776172 23.840406 29.951172 23.316406 C 30.125172 22.792406 29.842359 22.225781 29.318359 22.050781 L 29.316406 22.050781 L 26.316406 21.050781 C 26.222406 21.017781 26.123437 21.000094 26.023438 20.996094 z M 16 28 L 27 28 C 27.268 28 27.519031 28.104922 27.707031 28.294922 C 27.896031 28.484922 28.001 28.736906 28 29.003906 L 27.962891 37.992188 L 25.605469 36.201172 C 25.431469 36.070172 25.218 36 25 36 L 16 36 C 15.448 36 15 35.551 15 35 L 15 29 C 15 28.449 15.448 28 16 28 z M 38.335938 28 L 45.742188 28 C 45.254188 31.391 43.974375 34.721484 41.984375 37.521484 C 38.909375 41.763484 34.109594 44.661578 28.933594 45.642578 C 28.854594 45.438578 28.711391 45.265391 28.525391 45.150391 L 36.539062 38.849609 L 38.447266 37.894531 C 38.684266 37.775531 38.865219 37.568406 38.949219 37.316406 L 39.925781 34.382812 L 40.894531 32.445312 C 41.001531 32.232312 41.028703 31.988813 40.970703 31.757812 L 40.470703 29.757812 C 40.383703 29.410812 40.118391 29.135109 39.775391 29.037109 L 37.736328 28.455078 L 38.335938 28 z"/></svg>