<svg xmlns="http://www.w3.org/2000/svg"  viewBox="0 0 50 50" width="50px" height="50px"><path d="M 8 8 C 5.8026661 8 4 9.8026661 4 12 L 4 34 C 4 34.730688 4.2136476 35.40837 4.5605469 36 L 2 36 A 1.0001 1.0001 0 0 0 1 37 C 1 39.749516 3.2504839 42 6 42 L 44 42 C 46.749516 42 49 39.749516 49 37 A 1.0001 1.0001 0 0 0 48 36 L 45.439453 36 C 45.786352 35.40837 46 34.730688 46 34 L 46 12 C 46 9.8026661 44.197334 8 42 8 L 8 8 z M 8 10 L 42 10 C 43.116666 10 44 10.883334 44 12 L 44 34 C 44 35.116666 43.116666 36 42 36 L 8 36 C 6.8833339 36 6 35.116666 6 34 L 6 12 C 6 10.883334 6.8833339 10 8 10 z M 22 13 L 22 14 L 22 33 L 28 33 L 28 13 L 22 13 z M 24 15 L 26 15 L 26 31 L 24 31 L 24 15 z M 30 17 L 30 18 L 30 33 L 36 33 L 36 17 L 30 17 z M 32 19 L 34 19 L 34 31 L 32 31 L 32 19 z M 14 22 L 14 23 L 14 33 L 20 33 L 20 22 L 14 22 z M 16 24 L 18 24 L 18 31 L 16 31 L 16 24 z M 3.4121094 38 L 8 38 L 42 38 L 46.587891 38 C 46.150803 39.112465 45.275852 40 44 40 L 6 40 C 4.7241482 40 3.8491966 39.112465 3.4121094 38 z"/></svg>